<?xml version="1.0" standalone="no"?><svg xmlns:xlink="http://www.w3.org/1999/xlink" xmlns="http://www.w3.org/2000/svg" viewBox="0 0 1000 1000" preserveAspectRatio="xMaxYMax slice"><g transform="scale(3.0864197530864197)"><rect x="0" y="0" width="324" height="324" fill="#ffffff"/><circle cx="54" cy="54" r="54" fill="#ffede0"/><rect x="108" y="0" width="108" height="108" fill="#ffffff"/><circle cx="135" cy="27" r="27" fill="#a45d5d"/><circle cx="189" cy="27" r="27" fill="#ffc8a0"/><circle cx="135" cy="81" r="27" fill="#e3a7a7"/><circle cx="189" cy="81" r="27" fill="#d16e6e"/><circle cx="270" cy="54" r="54" fill="#fcfafa"/><circle cx="54" cy="162" r="54" fill="#fffbf9"/><rect x="108" y="108" width="108" height="108" fill="#ffffff"/><circle cx="135" cy="135" r="27" fill="#862727"/><circle cx="189" cy="135" r="27" fill="#872a2a"/><circle cx="135" cy="189" r="27" fill="#e8b8b8"/><circle cx="189" cy="189" r="27" fill="#ffebdd"/><rect x="216" y="108" width="108" height="108" fill="#ffffff"/><circle cx="243" cy="135" r="27" fill="#f2d5d5"/><circle cx="297" cy="135" r="27" fill="#e9b9b9"/><circle cx="243" cy="189" r="27" fill="#ffeee1"/><circle cx="297" cy="189" r="27" fill="#d2afaf"/><rect x="0" y="216" width="108" height="108" fill="#ffffff"/><circle cx="27" cy="243" r="27" fill="#a96666"/><circle cx="81" cy="243" r="27" fill="#9a4c4c"/><circle cx="27" cy="297" r="27" fill="#d16d6d"/><circle cx="81" cy="297" r="27" fill="#f9f5f5"/><rect x="108" y="216" width="108" height="108" fill="#ffffff"/><circle cx="135" cy="243" r="27" fill="#ffddc4"/><circle cx="189" cy="243" r="27" fill="#efe3e3"/><circle cx="135" cy="297" r="27" fill="#fffcf9"/><circle cx="189" cy="297" r="27" fill="#f3dada"/><circle cx="270" cy="270" r="54" fill="#c59999"/></g></svg>