<?xml version="1.0" standalone="no"?><svg xmlns:xlink="http://www.w3.org/1999/xlink" xmlns="http://www.w3.org/2000/svg" viewBox="0 0 150 100" preserveAspectRatio="xMaxYMax slice"><g transform="scale(0.46296296296296297)"><rect x="0" y="0" width="324" height="216" fill="#ffffff"/><rect x="0" y="0" width="108" height="108" fill="#8f3838"/><g transform="translate(0,0) scale(5.4) rotate(0)"><rect width="20" height="2" fill="#a05656"/><rect y="4" width="20" height="2" fill="#a05656"/><rect y="8" width="20" height="2" fill="#a05656"/><rect y="12" width="20" height="2" fill="#a05656"/><rect y="16" width="20" height="2" fill="#a05656"/></g><rect x="108" y="0" width="108" height="108" fill="#f9eded"/><g transform="translate(108,0) scale(5.4) rotate(0)"><rect width="20" height="2" fill="#d27171"/><rect y="4" width="20" height="2" fill="#d27171"/><rect y="8" width="20" height="2" fill="#d27171"/><rect y="12" width="20" height="2" fill="#d27171"/><rect y="16" width="20" height="2" fill="#d27171"/></g><rect x="216" y="0" width="108" height="108" fill="#fff5ed"/><g transform="translate(216,0) scale(5.4) rotate(0)"><rect width="20" height="2" fill="#fff9f4"/><rect y="4" width="20" height="2" fill="#fff9f4"/><rect y="8" width="20" height="2" fill="#fff9f4"/><rect y="12" width="20" height="2" fill="#fff9f4"/><rect y="16" width="20" height="2" fill="#fff9f4"/></g><rect x="0" y="108" width="108" height="108" fill="#f5dfdf"/><g transform="translate(0,108) scale(5.4) rotate(0)"><rect width="20" height="2" fill="#954343"/><rect y="4" width="20" height="2" fill="#954343"/><rect y="8" width="20" height="2" fill="#954343"/><rect y="12" width="20" height="2" fill="#954343"/><rect y="16" width="20" height="2" fill="#954343"/></g><rect x="108" y="108" width="108" height="108" fill="#ffe2cc"/><g transform="translate(108,108) scale(5.4) rotate(0)"><rect width="20" height="2" fill="#e0c8c8"/><rect y="4" width="20" height="2" fill="#e0c8c8"/><rect y="8" width="20" height="2" fill="#e0c8c8"/><rect y="12" width="20" height="2" fill="#e0c8c8"/><rect y="16" width="20" height="2" fill="#e0c8c8"/></g><rect x="216" y="108" width="108" height="108" fill="#d98888"/><g transform="translate(216,108) scale(5.4) rotate(0)"><rect width="20" height="2" fill="#fcfafa"/><rect y="4" width="20" height="2" fill="#fcfafa"/><rect y="8" width="20" height="2" fill="#fcfafa"/><rect y="12" width="20" height="2" fill="#fcfafa"/><rect y="16" width="20" height="2" fill="#fcfafa"/></g></g></svg>